<svg width="26" height="26" viewBox="0 0 26 26" fill="none" xmlns="http://www.w3.org/2000/svg">
<g clip-path="url(#clip0_1465_434)">
<path d="M12.8741 2.6607C16.3006 2.6607 16.7064 2.67573 18.054 2.73584C19.3063 2.79095 19.9826 3.00135 20.4335 3.17668C21.0296 3.40712 21.4604 3.68765 21.9063 4.13349C22.3571 4.58435 22.6327 5.01016 22.8631 5.60629C23.0384 6.05715 23.2488 6.73844 23.3039 7.9858C23.364 9.33837 23.3791 9.74414 23.3791 13.1656C23.3791 16.5921 23.364 16.9979 23.3039 18.3455C23.2488 19.5978 23.0384 20.2741 22.8631 20.725C22.6327 21.3211 22.3521 21.7519 21.9063 22.1978C21.4554 22.6486 21.0296 22.9242 20.4335 23.1546C19.9826 23.3299 19.3013 23.5403 18.054 23.5954C16.7014 23.6555 16.2956 23.6706 12.8741 23.6706C9.44764 23.6706 9.04187 23.6555 7.69431 23.5954C6.44193 23.5403 5.76565 23.3299 5.3148 23.1546C4.71866 22.9242 4.28785 22.6436 3.842 22.1978C3.39114 21.7469 3.11562 21.3211 2.88518 20.725C2.70985 20.2741 2.49945 19.5928 2.44435 18.3455C2.38423 16.9929 2.36921 16.5871 2.36921 13.1656C2.36921 9.73913 2.38423 9.33336 2.44435 7.9858C2.49945 6.73343 2.70985 6.05715 2.88518 5.60629C3.11562 5.01016 3.39615 4.57934 3.842 4.13349C4.29286 3.68264 4.71866 3.40712 5.3148 3.17668C5.76565 3.00135 6.44694 2.79095 7.69431 2.73584C9.04187 2.67573 9.44764 2.6607 12.8741 2.6607ZM12.8741 0.351318C9.39253 0.351318 8.95671 0.366347 7.58911 0.426461C6.22653 0.486575 5.28975 0.706993 4.47821 1.02259C3.6316 1.35322 2.91524 1.78905 2.20389 2.50541C1.48753 3.21676 1.05171 3.93312 0.721078 4.77471C0.40548 5.59126 0.185061 6.52303 0.124947 7.88561C0.0648332 9.25822 0.0498047 9.69405 0.0498047 13.1757C0.0498047 16.6573 0.0648332 17.0931 0.124947 18.4607C0.185061 19.8233 0.40548 20.76 0.721078 21.5716C1.05171 22.4182 1.48753 23.1345 2.20389 23.8459C2.91524 24.5572 3.6316 24.9981 4.4732 25.3237C5.28975 25.6393 6.22152 25.8597 7.5841 25.9198C8.9517 25.9799 9.38752 25.995 12.8691 25.995C16.3507 25.995 16.7866 25.9799 18.1542 25.9198C19.5167 25.8597 20.4535 25.6393 21.2651 25.3237C22.1067 24.9981 22.823 24.5572 23.5344 23.8459C24.2457 23.1345 24.6866 22.4182 25.0122 21.5766C25.3278 20.76 25.5482 19.8283 25.6083 18.4657C25.6684 17.0981 25.6834 16.6623 25.6834 13.1807C25.6834 9.69906 25.6684 9.26323 25.6083 7.89563C25.5482 6.53305 25.3278 5.59627 25.0122 4.78473C24.6966 3.93311 24.2607 3.21676 23.5444 2.50541C22.833 1.79406 22.1167 1.35322 21.2751 1.0276C20.4585 0.712003 19.5268 0.491585 18.1642 0.43147C16.7916 0.366347 16.3557 0.351318 12.8741 0.351318Z" fill="black"/>
<path d="M12.8746 6.58813C9.23771 6.58813 6.28711 9.53873 6.28711 13.1756C6.28711 16.8125 9.23771 19.7631 12.8746 19.7631C16.5115 19.7631 19.4621 16.8125 19.4621 13.1756C19.4621 9.53873 16.5115 6.58813 12.8746 6.58813ZM12.8746 17.4487C10.5151 17.4487 8.6015 15.5351 8.6015 13.1756C8.6015 10.8162 10.5151 8.90253 12.8746 8.90253C15.2341 8.90253 17.1477 10.8162 17.1477 13.1756C17.1477 15.5351 15.2341 17.4487 12.8746 17.4487Z" fill="black"/>
<path d="M21.2604 6.32759C21.2604 7.17921 20.5691 7.86551 19.7225 7.86551C18.8709 7.86551 18.1846 7.1742 18.1846 6.32759C18.1846 5.47598 18.8759 4.78967 19.7225 4.78967C20.5691 4.78967 21.2604 5.48099 21.2604 6.32759Z" fill="black"/>
</g>
<defs>
<clipPath id="clip0_1465_434">
<rect width="25.6487" height="25.6487" fill="white" transform="translate(0.0498047 0.351318)"/>
</clipPath>
</defs>
</svg>
