<svg xmlns="http://www.w3.org/2000/svg" width="299" height="174" viewBox="0 0 299 174" version="1.1"><path d="M 53.619 32.450 C 54.137 33.800, 53.465 34.989, 51.079 36.936 L 47.834 39.584 71.667 52.468 C 84.775 59.553, 97.138 66.371, 99.140 67.619 C 101.143 68.866, 107.668 72.534, 113.640 75.770 C 119.613 79.006, 129.504 84.432, 135.619 87.827 C 143.223 92.048, 147.829 94, 150.187 94 C 152.713 94, 158.437 91.286, 171.568 83.864 C 181.431 78.289, 194 71.244, 199.500 68.208 C 205 65.173, 214.225 60.011, 220 56.737 C 225.775 53.463, 235.666 47.936, 241.979 44.455 C 253.058 38.345, 253.363 38.088, 250.729 37.087 C 249.228 36.516, 247.986 35.701, 247.968 35.275 C 247.951 34.849, 247.322 33.689, 246.570 32.699 C 245.276 30.992, 244.976 31.053, 240.852 33.864 C 231.682 40.116, 220.408 47.271, 216.046 49.609 C 213.546 50.948, 208.575 53.901, 205 56.171 C 201.425 58.442, 196.985 61.154, 195.133 62.198 C 188.030 66.204, 169.164 77.495, 161.774 82.162 C 151.225 88.823, 149.915 88.952, 142 84.112 C 138.425 81.925, 131 77.561, 125.500 74.412 C 120 71.264, 114.375 67.922, 113 66.987 C 111.625 66.051, 108.475 64.148, 106 62.756 C 82.409 49.496, 57.484 34.645, 54.707 32.194 C 53.053 30.735, 52.969 30.755, 53.619 32.450 M 133.635 37.073 C 130.357 39.651, 130.315 41.406, 133.455 44.545 C 136.510 47.601, 137.481 47.610, 140.481 44.610 C 143.240 41.851, 142.926 38.762, 139.653 36.469 C 136.962 34.584, 136.774 34.603, 133.635 37.073 M 161.250 36.674 C 158.456 38.623, 158.344 42.344, 161 45 C 163.500 47.500, 164.103 47.493, 167.365 44.927 C 170.510 42.454, 170.728 39.728, 168 37 C 165.630 34.630, 164.274 34.565, 161.250 36.674 M 42.310 47.872 C 41.711 50.417, 41.284 52.543, 41.361 52.596 C 41.437 52.648, 54.100 59.125, 69.500 66.989 C 84.900 74.852, 98.400 81.845, 99.500 82.528 C 100.600 83.212, 109.995 88.105, 120.377 93.402 C 137.909 102.347, 139.350 102.908, 140.596 101.267 C 141.333 100.295, 141.951 99.189, 141.968 98.810 C 142.002 98.071, 130.881 91.609, 117 84.300 C 112.325 81.838, 108.050 79.479, 107.500 79.056 C 106.950 78.634, 104.025 76.955, 101 75.325 C 97.975 73.695, 86.050 67.268, 74.500 61.044 C 62.950 54.819, 51.227 48.267, 48.449 46.485 L 43.398 43.244 42.310 47.872 M 251.215 46.032 C 248.858 47.664, 246.661 49, 246.334 49 C 246.006 49, 240.059 52.204, 233.119 56.119 C 219.488 63.810, 207.019 70.772, 197.500 76.010 C 194.200 77.826, 189.025 80.761, 186 82.531 C 182.975 84.302, 175.438 88.548, 169.250 91.967 C 163.063 95.386, 158 98.367, 158 98.591 C 158 98.816, 158.787 99.804, 159.750 100.787 C 161.428 102.501, 161.829 102.404, 169.500 98.438 C 185.965 89.924, 201.660 81.655, 206.500 78.944 C 213.194 75.194, 246.901 57.665, 254.799 53.827 C 260.459 51.076, 260.953 50.600, 259.667 49.133 C 258.880 48.235, 257.928 46.487, 257.551 45.250 C 256.684 42.404, 256.401 42.439, 251.215 46.032 M 261.330 56.940 C 259.587 58.003, 247.887 64.140, 235.330 70.578 C 222.774 77.016, 212.050 82.617, 211.500 83.025 C 210.467 83.791, 196.052 91.408, 176 101.784 L 164.500 107.734 163.881 112.688 C 163.541 115.413, 162.724 118.646, 162.067 119.874 C 158.827 125.929, 148.200 127.957, 141.912 123.720 C 137.621 120.828, 136.034 117.674, 136.013 112 L 135.996 107.500 112.248 95.427 C 62.404 70.088, 38.450 57.725, 37.087 56.632 C 36.008 55.767, 35.561 55.838, 35.194 56.931 C 34.929 57.718, 33.703 59.298, 32.468 60.442 L 30.223 62.523 43.861 69.230 C 81.769 87.871, 89.076 91.488, 108.613 101.284 L 129.725 111.871 130.398 116.941 C 131.624 126.183, 139.062 132, 149.654 132 C 155.867 132, 160.077 130.428, 164.876 126.318 C 167.705 123.895, 168.334 122.583, 168.752 118.231 C 169.026 115.374, 169.891 112.505, 170.673 111.856 C 171.456 111.207, 194.392 99.499, 221.644 85.838 C 248.895 72.177, 270.724 61, 270.152 61 C 269.581 61, 268.316 59.650, 267.341 58 C 265.247 54.455, 265.371 54.477, 261.330 56.940 M 71.706 105.194 C 64.971 112.202, 62.004 116.005, 62.206 117.365 C 62.368 118.453, 62.970 119.498, 63.544 119.686 C 64.118 119.875, 69.649 115.242, 75.836 109.390 C 86.607 99.202, 87.012 98.671, 85.387 96.875 C 84.454 95.844, 83.197 95, 82.595 95 C 81.993 95, 77.093 99.587, 71.706 105.194 M 214.236 96.787 L 211.972 98.529 217.736 104.675 C 225.636 113.099, 236.039 122.094, 237.114 121.430 C 239.756 119.796, 237.347 115.886, 227.451 105.750 C 221.679 99.838, 216.854 95.010, 216.728 95.022 C 216.603 95.034, 215.481 95.829, 214.236 96.787 M 117.447 115.250 C 117.068 116.487, 115.715 119.750, 114.440 122.500 C 107.624 137.197, 107.253 139, 111.046 139 C 113.090 139, 115.795 135.264, 120.337 126.168 C 123.528 119.779, 123.785 115.491, 121.066 114.035 C 118.421 112.620, 118.232 112.683, 117.447 115.250 M 177.665 114.255 C 176.119 115.386, 176.083 115.957, 177.303 120.005 C 180.229 129.710, 184.086 136.793, 187.133 138.055 C 190.663 139.517, 191.693 138.761, 190.436 135.628 C 189.921 134.345, 187.708 128.729, 185.517 123.148 C 183.326 117.566, 181.050 113, 180.458 113 C 179.866 113, 178.610 113.565, 177.665 114.255 M 150.250 146.662 C 148.312 147.444, 148.546 159, 150.500 159 C 151.679 159, 152 157.611, 152 152.500 C 152 148.925, 151.887 146.036, 151.750 146.079 C 151.613 146.122, 150.938 146.385, 150.250 146.662" stroke="none" fill="#eeeddb" fill-rule="evenodd"/><path d="M 118.764 31.320 L 118.500 62.796 107.747 56.148 C 101.834 52.492, 92.255 46.800, 86.462 43.500 C 80.669 40.200, 73.132 35.742, 69.714 33.594 C 60.093 27.546, 53.355 24, 51.487 24 C 49.129 24, 50.355 28.883, 53.311 31.264 C 57.284 34.467, 82.761 49.694, 106 62.756 C 108.475 64.148, 111.625 66.051, 113 66.987 C 114.375 67.922, 120 71.264, 125.500 74.412 C 131 77.561, 138.425 81.925, 142 84.112 C 149.915 88.952, 151.225 88.823, 161.774 82.162 C 169.164 77.495, 188.030 66.204, 195.133 62.198 C 196.985 61.154, 201.425 58.442, 205 56.171 C 208.575 53.901, 213.546 50.948, 216.046 49.609 C 220.408 47.271, 231.682 40.116, 240.852 33.864 C 244.859 31.133, 245.303 31.032, 246.447 32.597 C 247.536 34.086, 247.767 33.824, 248.308 30.492 C 248.647 28.400, 248.690 26.308, 248.403 25.844 C 247.146 23.809, 242.688 25.386, 235.372 30.453 C 231.043 33.452, 225.253 37.114, 222.507 38.590 C 219.760 40.066, 214.652 43.012, 211.154 45.137 C 207.657 47.262, 204.555 49, 204.262 49 C 203.968 49, 198.614 52.149, 192.364 55.999 L 181 62.998 181 31.999 C 181 12.130, 180.643 1, 180.006 1 C 179.460 1, 177.662 2.913, 176.011 5.250 C 174.360 7.588, 170.505 12.937, 167.444 17.139 L 161.878 24.777 156.913 23.189 C 152.682 21.836, 150.909 21.780, 144.915 22.808 L 137.882 24.014 135.191 20.866 C 133.711 19.135, 129.859 13.845, 126.630 9.110 C 123.402 4.374, 120.371 0.352, 119.894 0.171 C 119.418 -0.009, 118.909 14.007, 118.764 31.320 M 51.872 35.750 C 50.629 37.336, 50.664 37.371, 52.250 36.128 C 53.212 35.373, 54 34.585, 54 34.378 C 54 33.555, 53.179 34.084, 51.872 35.750 M 133.635 37.073 C 130.357 39.651, 130.315 41.406, 133.455 44.545 C 136.510 47.601, 137.481 47.610, 140.481 44.610 C 143.240 41.851, 142.926 38.762, 139.653 36.469 C 136.962 34.584, 136.774 34.603, 133.635 37.073 M 161.250 36.674 C 158.456 38.623, 158.344 42.344, 161 45 C 163.500 47.500, 164.103 47.493, 167.365 44.927 C 170.510 42.454, 170.728 39.728, 168 37 C 165.630 34.630, 164.274 34.565, 161.250 36.674 M 39 37.753 C 39 38.304, 39.675 39.315, 40.500 40 C 41.325 40.685, 42.067 42.877, 42.150 44.872 C 42.272 47.842, 42.375 48.007, 42.713 45.782 L 43.127 43.064 48.313 46.395 C 51.166 48.227, 62.950 54.819, 74.500 61.044 C 86.050 67.268, 97.975 73.695, 101 75.325 C 104.025 76.955, 106.950 78.634, 107.500 79.056 C 108.050 79.479, 112.325 81.838, 117 84.300 C 130.881 91.609, 142.002 98.071, 141.968 98.810 C 141.951 99.189, 141.332 100.297, 140.593 101.270 C 139.344 102.916, 137.995 102.399, 121.375 93.908 C 111.544 88.886, 101.700 83.760, 99.500 82.517 C 97.300 81.274, 84.700 74.743, 71.500 68.004 C 58.300 61.264, 44.727 54.232, 41.338 52.375 C 32.686 47.637, 29.978 47.984, 33.511 53.377 C 34.914 55.518, 34.841 55.880, 32.491 58.415 C 30.643 60.409, 29.178 61.064, 27.063 60.843 C 23.470 60.466, 21.811 61.909, 12.515 73.500 C 8.545 78.450, 4.330 83.357, 3.148 84.405 C 1.967 85.453, 1 86.587, 1 86.925 C 1 87.264, 7.412 87.533, 15.250 87.523 C 31.599 87.503, 33.704 88.176, 43.337 96.493 C 50.481 102.660, 55.079 111.653, 55.951 121.162 C 56.290 124.869, 56.824 128.157, 57.135 128.469 C 57.447 128.780, 59.682 128.137, 62.101 127.040 C 65.342 125.569, 68.678 125.038, 74.772 125.022 C 81.795 125.003, 83.984 125.433, 89.272 127.871 C 96.929 131.400, 98.835 133.199, 101.921 139.812 L 104.342 145 109.612 145 C 112.510 145, 115.160 145.450, 115.500 146 C 115.840 146.550, 117.170 147, 118.456 147 C 125.888 147, 141.825 159.941, 146.500 169.772 C 147.600 172.085, 148.951 173.982, 149.502 173.989 C 150.053 173.995, 151.603 171.863, 152.947 169.250 C 155.888 163.535, 167.123 151.676, 172.032 149.108 C 175.090 147.508, 184.017 145.547, 191.898 144.744 C 193.217 144.610, 194.783 143.600, 195.378 142.500 C 199.719 134.479, 202.675 130.775, 206.901 128.063 C 211.337 125.217, 212.323 125, 220.815 125 C 228.678 125, 230.711 125.371, 235.362 127.651 C 238.335 129.110, 241.426 130.051, 242.230 129.742 C 243.245 129.352, 243.885 126.893, 244.325 121.683 C 245.252 110.719, 248.027 104.210, 254.307 98.271 C 265.373 87.805, 274.163 84.885, 289.119 86.705 C 293.729 87.267, 297.849 87.416, 298.276 87.037 C 298.703 86.658, 297.930 85.137, 296.558 83.657 C 295.186 82.177, 291.343 77.392, 288.017 73.023 C 282.238 65.431, 276.504 60, 274.268 60 C 273.111 60, 177.335 107.836, 172.387 110.886 C 169.684 112.552, 169.206 113.504, 168.763 118.115 C 168.333 122.595, 167.724 123.878, 164.876 126.318 C 160.077 130.428, 155.867 132, 149.654 132 C 139.062 132, 131.624 126.183, 130.398 116.941 L 129.725 111.871 108.613 101.284 C 89.076 91.488, 81.769 87.871, 43.861 69.230 L 30.223 62.523 32.468 60.442 C 33.703 59.298, 34.929 57.718, 35.194 56.931 C 35.561 55.838, 36.008 55.767, 37.087 56.632 C 38.450 57.725, 62.404 70.088, 112.248 95.427 L 135.996 107.500 136.013 112 C 136.034 117.674, 137.621 120.828, 141.912 123.720 C 148.200 127.957, 158.827 125.929, 162.067 119.874 C 162.724 118.646, 163.541 115.413, 163.881 112.688 L 164.500 107.734 176 101.784 C 196.029 91.420, 210.466 83.791, 211.500 83.026 C 212.050 82.618, 222.400 77.216, 234.500 71.020 C 246.600 64.824, 258.435 58.630, 260.799 57.254 C 264.714 54.976, 265.206 54.898, 266.299 56.389 C 267.294 57.745, 267.499 57.210, 267.492 53.263 C 267.485 49.552, 267.154 48.578, 265.992 48.853 C 265.171 49.048, 263.525 49.273, 262.334 49.353 C 261.142 49.434, 260.242 49.777, 260.334 50.116 C 260.494 50.711, 254.679 53.843, 222.500 70.489 C 214.250 74.756, 207.050 78.576, 206.500 78.977 C 205.597 79.635, 186.663 89.588, 168.500 98.953 C 161.795 102.410, 161.426 102.487, 159.750 100.781 C 158.787 99.801, 158 98.816, 158 98.591 C 158 98.367, 163.062 95.386, 169.250 91.967 C 175.438 88.548, 182.975 84.302, 186 82.531 C 189.025 80.761, 194.200 77.826, 197.500 76.010 C 207.019 70.772, 219.488 63.810, 233.119 56.119 C 240.059 52.204, 245.999 49, 246.319 49 C 246.638 49, 249.030 47.562, 251.635 45.804 C 255.084 43.477, 256.491 42.972, 256.815 43.946 C 257.070 44.711, 257.859 43.863, 258.656 41.967 C 259.779 39.296, 259.802 38.492, 258.775 37.842 C 257.379 36.958, 251.927 37.072, 252.484 37.974 C 252.674 38.282, 247.580 41.404, 241.165 44.912 C 234.749 48.420, 225 53.860, 219.500 57 C 214 60.140, 205 65.188, 199.500 68.218 C 194 71.249, 181.431 78.289, 171.568 83.864 C 158.437 91.286, 152.713 94, 150.187 94 C 147.828 94, 143.224 92.049, 135.619 87.825 C 129.504 84.429, 120 79.216, 114.500 76.241 C 109 73.266, 102.025 69.354, 99 67.548 C 95.975 65.742, 82.562 58.339, 69.192 51.096 C 46.155 38.615, 39 35.453, 39 37.753 M 268.733 60.124 C 269.412 60.808, 270.219 61.115, 270.526 60.807 C 270.834 60.499, 270.279 59.940, 269.293 59.564 C 267.868 59.022, 267.753 59.136, 268.733 60.124 M 71.706 105.194 C 64.971 112.202, 62.004 116.005, 62.206 117.365 C 62.368 118.453, 62.970 119.498, 63.544 119.686 C 64.118 119.875, 69.649 115.242, 75.836 109.390 C 86.607 99.202, 87.012 98.671, 85.387 96.875 C 84.454 95.844, 83.197 95, 82.595 95 C 81.993 95, 77.093 99.587, 71.706 105.194 M 214.236 96.787 L 211.972 98.529 217.736 104.675 C 225.636 113.099, 236.039 122.094, 237.114 121.430 C 239.756 119.796, 237.347 115.886, 227.451 105.750 C 221.679 99.838, 216.854 95.010, 216.728 95.022 C 216.603 95.034, 215.481 95.829, 214.236 96.787 M 117.447 115.250 C 117.068 116.487, 115.715 119.750, 114.440 122.500 C 107.624 137.197, 107.253 139, 111.046 139 C 113.090 139, 115.795 135.264, 120.337 126.168 C 123.528 119.779, 123.785 115.491, 121.066 114.035 C 118.421 112.620, 118.232 112.683, 117.447 115.250 M 177.665 114.255 C 176.119 115.386, 176.083 115.957, 177.303 120.005 C 180.229 129.710, 184.086 136.793, 187.133 138.055 C 190.663 139.517, 191.693 138.761, 190.436 135.628 C 189.921 134.345, 187.708 128.729, 185.517 123.148 C 183.326 117.566, 181.050 113, 180.458 113 C 179.866 113, 178.610 113.565, 177.665 114.255 M 150.250 146.662 C 148.312 147.444, 148.546 159, 150.500 159 C 151.679 159, 152 157.611, 152 152.500 C 152 148.925, 151.887 146.036, 151.750 146.079 C 151.613 146.122, 150.938 146.385, 150.250 146.662" stroke="none" fill="#191d1f" fill-rule="evenodd"/></svg>